<mxfile host="app.diagrams.net" agent="Mozilla/5.0 (Windows NT 10.0; Win64; x64) AppleWebKit/537.36 (KHTML, like Gecko) Chrome/131.0.0.0 Safari/537.36 Edg/131.0.0.0" version="25.0.1">
  <diagram name="Page-1" id="PatYx8tOKG9_-AZ6a7Ry">
    <mxGraphModel dx="1243" dy="578" grid="1" gridSize="10" guides="1" tooltips="1" connect="1" arrows="1" fold="1" page="1" pageScale="1" pageWidth="850" pageHeight="1100" math="1" shadow="0">
      <root>
        <mxCell id="0" />
        <mxCell id="1" parent="0" />
        <mxCell id="ScHSXHbbm9pWbnb95xWi-27" value="" style="group" vertex="1" connectable="0" parent="1">
          <mxGeometry x="117.5" y="100" width="642.5" height="160" as="geometry" />
        </mxCell>
        <mxCell id="ScHSXHbbm9pWbnb95xWi-4" value="" style="edgeStyle=orthogonalEdgeStyle;rounded=0;orthogonalLoop=1;jettySize=auto;html=1;" edge="1" parent="ScHSXHbbm9pWbnb95xWi-27" source="ScHSXHbbm9pWbnb95xWi-1" target="ScHSXHbbm9pWbnb95xWi-3">
          <mxGeometry relative="1" as="geometry" />
        </mxCell>
        <mxCell id="ScHSXHbbm9pWbnb95xWi-1" value="FFT" style="rounded=0;whiteSpace=wrap;html=1;" vertex="1" parent="ScHSXHbbm9pWbnb95xWi-27">
          <mxGeometry x="62.5" y="60" width="60" height="40" as="geometry" />
        </mxCell>
        <mxCell id="ScHSXHbbm9pWbnb95xWi-6" value="" style="edgeStyle=orthogonalEdgeStyle;rounded=0;orthogonalLoop=1;jettySize=auto;html=1;" edge="1" parent="ScHSXHbbm9pWbnb95xWi-27" source="ScHSXHbbm9pWbnb95xWi-2" target="ScHSXHbbm9pWbnb95xWi-3">
          <mxGeometry relative="1" as="geometry" />
        </mxCell>
        <mxCell id="ScHSXHbbm9pWbnb95xWi-2" value="$$H[k]$$" style="rounded=0;whiteSpace=wrap;html=1;" vertex="1" parent="ScHSXHbbm9pWbnb95xWi-27">
          <mxGeometry x="142.5" y="120" width="40" height="40" as="geometry" />
        </mxCell>
        <mxCell id="ScHSXHbbm9pWbnb95xWi-8" value="" style="edgeStyle=orthogonalEdgeStyle;rounded=0;orthogonalLoop=1;jettySize=auto;html=1;" edge="1" parent="ScHSXHbbm9pWbnb95xWi-27" source="ScHSXHbbm9pWbnb95xWi-3" target="ScHSXHbbm9pWbnb95xWi-7">
          <mxGeometry relative="1" as="geometry" />
        </mxCell>
        <mxCell id="ScHSXHbbm9pWbnb95xWi-3" value="$$\times$$" style="ellipse;whiteSpace=wrap;html=1;aspect=fixed;" vertex="1" parent="ScHSXHbbm9pWbnb95xWi-27">
          <mxGeometry x="142.5" y="60" width="40" height="40" as="geometry" />
        </mxCell>
        <mxCell id="ScHSXHbbm9pWbnb95xWi-10" value="" style="edgeStyle=orthogonalEdgeStyle;rounded=0;orthogonalLoop=1;jettySize=auto;html=1;" edge="1" parent="ScHSXHbbm9pWbnb95xWi-27" source="ScHSXHbbm9pWbnb95xWi-7" target="ScHSXHbbm9pWbnb95xWi-9">
          <mxGeometry relative="1" as="geometry" />
        </mxCell>
        <mxCell id="ScHSXHbbm9pWbnb95xWi-7" value="window" style="rounded=0;whiteSpace=wrap;html=1;" vertex="1" parent="ScHSXHbbm9pWbnb95xWi-27">
          <mxGeometry x="202.5" y="60" width="60" height="40" as="geometry" />
        </mxCell>
        <mxCell id="ScHSXHbbm9pWbnb95xWi-12" value="" style="edgeStyle=orthogonalEdgeStyle;rounded=0;orthogonalLoop=1;jettySize=auto;html=1;" edge="1" parent="ScHSXHbbm9pWbnb95xWi-27" source="ScHSXHbbm9pWbnb95xWi-9" target="ScHSXHbbm9pWbnb95xWi-11">
          <mxGeometry relative="1" as="geometry" />
        </mxCell>
        <mxCell id="ScHSXHbbm9pWbnb95xWi-9" value="IFFT" style="rounded=0;whiteSpace=wrap;html=1;" vertex="1" parent="ScHSXHbbm9pWbnb95xWi-27">
          <mxGeometry x="282.5" y="60" width="60" height="40" as="geometry" />
        </mxCell>
        <mxCell id="ScHSXHbbm9pWbnb95xWi-15" value="" style="edgeStyle=orthogonalEdgeStyle;rounded=0;orthogonalLoop=1;jettySize=auto;html=1;" edge="1" parent="ScHSXHbbm9pWbnb95xWi-27" source="ScHSXHbbm9pWbnb95xWi-11" target="ScHSXHbbm9pWbnb95xWi-14">
          <mxGeometry relative="1" as="geometry" />
        </mxCell>
        <mxCell id="ScHSXHbbm9pWbnb95xWi-11" value="$$x^T$$" style="rounded=0;whiteSpace=wrap;html=1;" vertex="1" parent="ScHSXHbbm9pWbnb95xWi-27">
          <mxGeometry x="362.5" y="60" width="40" height="40" as="geometry" />
        </mxCell>
        <mxCell id="ScHSXHbbm9pWbnb95xWi-21" value="" style="edgeStyle=orthogonalEdgeStyle;rounded=0;orthogonalLoop=1;jettySize=auto;html=1;" edge="1" parent="ScHSXHbbm9pWbnb95xWi-27" source="ScHSXHbbm9pWbnb95xWi-13" target="ScHSXHbbm9pWbnb95xWi-20">
          <mxGeometry relative="1" as="geometry" />
        </mxCell>
        <mxCell id="ScHSXHbbm9pWbnb95xWi-13" value="FFT" style="rounded=0;whiteSpace=wrap;html=1;" vertex="1" parent="ScHSXHbbm9pWbnb95xWi-27">
          <mxGeometry x="502.5" y="60" width="60" height="40" as="geometry" />
        </mxCell>
        <mxCell id="ScHSXHbbm9pWbnb95xWi-16" value="" style="edgeStyle=orthogonalEdgeStyle;rounded=0;orthogonalLoop=1;jettySize=auto;html=1;" edge="1" parent="ScHSXHbbm9pWbnb95xWi-27" source="ScHSXHbbm9pWbnb95xWi-14" target="ScHSXHbbm9pWbnb95xWi-13">
          <mxGeometry relative="1" as="geometry" />
        </mxCell>
        <mxCell id="ScHSXHbbm9pWbnb95xWi-14" value="window" style="rounded=0;whiteSpace=wrap;html=1;" vertex="1" parent="ScHSXHbbm9pWbnb95xWi-27">
          <mxGeometry x="422.5" y="60" width="60" height="40" as="geometry" />
        </mxCell>
        <mxCell id="ScHSXHbbm9pWbnb95xWi-17" value="" style="triangle;whiteSpace=wrap;html=1;rotation=90;" vertex="1" parent="ScHSXHbbm9pWbnb95xWi-27">
          <mxGeometry x="2.5" y="20" width="35" height="40" as="geometry" />
        </mxCell>
        <mxCell id="ScHSXHbbm9pWbnb95xWi-18" value="" style="endArrow=none;html=1;rounded=0;entryX=1;entryY=0.5;entryDx=0;entryDy=0;" edge="1" parent="ScHSXHbbm9pWbnb95xWi-27" target="ScHSXHbbm9pWbnb95xWi-17">
          <mxGeometry width="50" height="50" relative="1" as="geometry">
            <mxPoint x="20.5" y="80" as="sourcePoint" />
            <mxPoint x="422.5" y="230" as="targetPoint" />
          </mxGeometry>
        </mxCell>
        <mxCell id="ScHSXHbbm9pWbnb95xWi-19" value="" style="endArrow=classic;html=1;rounded=0;entryX=0;entryY=0.5;entryDx=0;entryDy=0;" edge="1" parent="ScHSXHbbm9pWbnb95xWi-27" target="ScHSXHbbm9pWbnb95xWi-1">
          <mxGeometry width="50" height="50" relative="1" as="geometry">
            <mxPoint x="22.5" y="80" as="sourcePoint" />
            <mxPoint x="42.5" y="80" as="targetPoint" />
          </mxGeometry>
        </mxCell>
        <mxCell id="ScHSXHbbm9pWbnb95xWi-20" value="RDM" style="text;html=1;align=center;verticalAlign=middle;whiteSpace=wrap;rounded=0;" vertex="1" parent="ScHSXHbbm9pWbnb95xWi-27">
          <mxGeometry x="582.5" y="65" width="60" height="30" as="geometry" />
        </mxCell>
        <mxCell id="ScHSXHbbm9pWbnb95xWi-22" value="Fast-Time" style="text;html=1;align=center;verticalAlign=middle;whiteSpace=wrap;rounded=0;" vertex="1" parent="ScHSXHbbm9pWbnb95xWi-27">
          <mxGeometry x="171.32" width="60" height="30" as="geometry" />
        </mxCell>
        <mxCell id="ScHSXHbbm9pWbnb95xWi-23" value="Slow-Time" style="text;html=1;align=center;verticalAlign=middle;whiteSpace=wrap;rounded=0;" vertex="1" parent="ScHSXHbbm9pWbnb95xWi-27">
          <mxGeometry x="431.09000000000003" width="60" height="30" as="geometry" />
        </mxCell>
        <mxCell id="ScHSXHbbm9pWbnb95xWi-25" value="" style="shape=curlyBracket;whiteSpace=wrap;html=1;rounded=1;labelPosition=left;verticalLabelPosition=middle;align=right;verticalAlign=middle;rotation=90;" vertex="1" parent="ScHSXHbbm9pWbnb95xWi-27">
          <mxGeometry x="451.09000000000003" y="-67.72" width="20" height="217.44" as="geometry" />
        </mxCell>
        <mxCell id="ScHSXHbbm9pWbnb95xWi-26" value="" style="shape=curlyBracket;whiteSpace=wrap;html=1;rounded=1;labelPosition=left;verticalLabelPosition=middle;align=right;verticalAlign=middle;rotation=90;" vertex="1" parent="ScHSXHbbm9pWbnb95xWi-27">
          <mxGeometry x="191.32" y="-108.12" width="20" height="298.23" as="geometry" />
        </mxCell>
      </root>
    </mxGraphModel>
  </diagram>
</mxfile>
